<?xml version="1.0" standalone="no"?>
<!DOCTYPE svg PUBLIC "-//W3C//DTD SVG 20010904//EN"
 "http://www.w3.org/TR/2001/REC-SVG-20010904/DTD/svg10.dtd">
<svg version="1.0" xmlns="http://www.w3.org/2000/svg"
 width="815.000000pt" height="815.000000pt" viewBox="0 0 815.000000 815.000000"
 preserveAspectRatio="xMidYMid meet">
<metadata>
Created by potrace 1.14, written by Peter Selinger 2001-2017
</metadata>
<g transform="translate(0.000000,815.000000) scale(0.100000,-0.100000)"
fill="#000000" stroke="none">
<path d="M0 4075 l0 -4075 4075 0 4075 0 0 4075 0 4075 -4075 0 -4075 0 0
-4075z m4984 3487 c30 -26 92 -78 139 -117 47 -38 92 -83 101 -100 8 -16 37
-70 64 -120 128 -236 164 -306 159 -311 -2 -3 -21 20 -41 50 -37 56 -53 72
-62 63 -24 -23 176 -442 303 -634 36 -54 53 -66 53 -37 0 22 -64 180 -111 278
-22 43 -39 81 -39 84 0 10 27 -32 58 -89 33 -63 220 -409 279 -519 175 -324
308 -570 353 -655 29 -55 61 -113 70 -130 45 -76 260 -488 257 -492 -2 -2 -23
24 -46 57 -46 65 -68 77 -56 33 33 -134 308 -663 345 -663 5 0 10 4 10 8 0 18
-39 121 -84 221 -26 57 -45 105 -43 108 5 4 106 -176 165 -292 19 -38 38 -100
51 -170 11 -60 47 -256 80 -435 82 -439 88 -478 107 -679 l16 -173 -48 -51
c-27 -28 -89 -93 -139 -143 l-90 -92 -1340 -672 c-737 -370 -1421 -714 -1520
-765 -99 -51 -267 -134 -372 -184 l-192 -91 -83 0 c-93 0 -90 -1 -254 126 -77
60 -81 65 -148 195 -38 74 -94 177 -124 229 -79 136 -118 205 -212 375 -46 83
-109 193 -140 245 -32 52 -72 124 -90 160 -18 36 -45 83 -60 105 -15 22 -55
94 -90 160 -35 66 -71 131 -80 145 -10 14 -37 61 -60 105 -24 44 -89 161 -145
260 -107 189 -207 367 -453 805 -14 25 -40 74 -59 108 -54 104 -112 200 -188
317 -90 138 -98 154 -136 267 -17 51 -38 104 -47 118 -10 15 -16 45 -15 78 0
62 -11 66 -57 20 -43 -44 -63 -75 -76 -117 -10 -35 -11 -33 -24 54 l-13 90 48
235 c26 129 55 276 65 325 46 237 73 352 88 375 19 30 94 122 175 213 67 75
12 43 742 422 83 43 204 106 270 140 66 34 201 104 300 155 99 51 203 105 230
120 28 15 145 76 260 135 116 59 233 120 260 135 28 15 136 71 240 125 105 54
226 117 270 140 44 23 141 74 215 112 74 39 214 111 311 162 l176 91 134 16
c74 9 161 19 194 23 70 9 77 6 149 -57z m506 -714 c0 -17 -10 -6 -25 25 l-16
32 20 -25 c11 -14 21 -28 21 -32z m1114 -2074 c3 -8 2 -12 -4 -9 -6 3 -10 10
-10 16 0 14 7 11 14 -7z m79 -144 c3 -11 2 -20 -3 -20 -4 0 -10 9 -13 20 -3
11 -2 20 3 20 4 0 10 -9 13 -20z m-5759 -291 c4 -22 15 -58 26 -80 29 -56 24
-71 -7 -19 -14 25 -29 66 -33 93 -8 57 5 63 14 6z"/>
<path d="M4079 7317 c-141 -58 -324 -173 -411 -257 -84 -82 -75 -111 29 -89
148 30 444 188 576 307 38 35 46 52 25 52 -7 0 -53 -20 -103 -44 -49 -25 -100
-48 -112 -51 -38 -10 -26 13 23 48 84 58 82 56 54 56 -14 0 -50 -10 -81 -22z
m-349 -262 c0 -2 -13 -11 -30 -20 -33 -17 -40 -10 -12 11 17 13 42 19 42 9z"/>
<path d="M5375 6723 c28 -115 223 -503 323 -644 54 -76 57 -34 7 87 -68 165
-226 463 -292 552 -30 40 -48 42 -38 5z"/>
<path d="M5407 6453 c-21 -34 243 -576 336 -688 80 -97 31 54 -102 319 -124
245 -218 394 -234 369z"/>
<path d="M4530 5730 c-226 -27 -404 -242 -375 -454 7 -59 16 -76 62 -126 30
-35 37 -38 58 -28 13 6 26 22 30 35 7 31 81 100 121 113 22 7 40 7 59 0 25
-10 27 -14 22 -51 -9 -70 -48 -131 -100 -158 l-47 -23 34 -47 c56 -76 75 -86
176 -89 65 -3 104 1 142 13 112 36 211 123 264 230 27 55 29 68 29 170 0 98
-3 116 -26 165 -66 139 -196 234 -349 253 -19 2 -64 1 -100 -3z"/>
<path d="M1829 5607 c-181 -75 -430 -242 -480 -324 -21 -34 -21 -37 -5 -49 35
-25 163 14 336 102 240 122 419 269 354 291 -6 2 -44 -21 -85 -50 -41 -30 -89
-62 -108 -71 -51 -27 -111 -46 -111 -36 0 13 65 64 131 101 33 19 67 39 77 46
31 22 -48 15 -109 -10z"/>
<path d="M6520 4607 c-1 -78 274 -619 343 -676 15 -12 17 -11 17 8 0 68 -256
578 -335 668 l-24 28 -1 -28z"/>
<path d="M6570 4287 c0 -84 319 -707 362 -707 33 0 -69 245 -204 494 -97 177
-158 259 -158 213z"/>
<path d="M3930 4043 c-94 -18 -226 -113 -277 -200 -76 -130 -72 -331 8 -387
34 -23 40 -21 101 32 68 60 110 79 146 66 25 -9 27 -14 26 -62 -2 -45 -7 -57
-43 -98 -48 -55 -51 -82 -13 -124 22 -25 39 -33 94 -41 198 -31 400 99 460
294 70 232 -85 477 -329 517 -59 10 -128 11 -173 3z"/>
<path d="M3379 2376 c-190 -53 -329 -248 -304 -429 11 -84 29 -115 80 -138
l46 -20 34 30 c44 38 106 58 143 45 54 -19 36 -117 -31 -177 l-32 -27 38 -35
c48 -42 119 -54 221 -36 189 32 333 188 344 372 14 236 -176 431 -416 428 -42
0 -98 -7 -123 -13z"/>
</g>
</svg>
